<svg xmlns="http://www.w3.org/2000/svg" viewBox="0 0 69 69" shape-rendering="crispEdges"><path fill="#000000" d="M4 4v1h7v-1m1 0v1h5v-1m3 0v1h1v-1m1 0v1h1v-1m1 0v1h2v-1m3 0v1h1v-1m1 0v1h1v-1m1 0v1h1v-1m1 0v1h2v-1m1 0v1h2v-1m1 0v1h1v-1m2 0v1h1v-1m1 0v1h1v-1m3 0v1h1v-1m2 0v1h1v-1m1 0v1h2v-1m1 0v1h7v-1M4 5v1h1v-1m5 0v1h1v-1m5 0v1h2v-1m1 0v1h1v-1m1 0v1h4v-1m2 0v1h1v-1m3 0v1h1v-1m3 0v1h2v-1m4 0v1h2v-1m1 0v1h2v-1m1 0v1h7v-1m1 0v1h2v-1m1 0v1h1v-1m5 0v1h1v-1M4 6v1h1v-1m1 0v1h3v-1m1 0v1h1v-1m4 0v1h2v-1m1 0v1h1v-1m1 0v1h1v-1m5 0v1h4v-1m3 0v1h2v-1m2 0v1h4v-1m1 0v1h1v-1m3 0v1h1v-1m1 0v1h5v-1m1 0v1h3v-1m1 0v1h1v-1m1 0v1h3v-1m1 0v1h1v-1M4 7v1h1v-1m1 0v1h3v-1m1 0v1h1v-1m1 0v1h1v-1m1 0v1h1v-1m1 0v1h2v-1m1 0v1h1v-1m1 0v1h1v-1m1 0v1h1v-1m1 0v1h2v-1m2 0v1h4v-1m1 0v1h1v-1m1 0v1h1v-1m1 0v1h2v-1m4 0v1h1v-1m2 0v1h1v-1m1 0v1h1v-1m1 0v1h1v-1m1 0v1h2v-1m1 0v1h1v-1m1 0v1h1v-1m1 0v1h3v-1m1 0v1h1v-1M4 8v1h1v-1m1 0v1h3v-1m1 0v1h1v-1m2 0v1h1v-1m6 0v1h1v-1m1 0v1h1v-1m1 0v1h2v-1m2 0v1h1v-1m1 0v1h7v-1m1 0v1h2v-1m4 0v1h1v-1m1 0v1h1v-1m2 0v1h4v-1m1 0v1h2v-1m2 0v1h1v-1m1 0v1h3v-1m1 0v1h1v-1M4 9v1h1v-1m5 0v1h1v-1m4 0v1h3v-1m2 0v1h5v-1m5 0v1h3v-1m3 0v1h1v-1m4 0v1h1v-1m2 0v1h1v-1m2 0v1h5v-1m1 0v1h2v-1m3 0v1h1v-1m5 0v1h1v-1M4 10v1h7v-1m1 0v1h1v-1m1 0v1h1v-1m1 0v1h1v-1m1 0v1h1v-1m1 0v1h1v-1m1 0v1h1v-1m1 0v1h1v-1m1 0v1h1v-1m1 0v1h1v-1m1 0v1h1v-1m1 0v1h1v-1m1 0v1h1v-1m1 0v1h1v-1m1 0v1h1v-1m1 0v1h1v-1m1 0v1h1v-1m1 0v1h1v-1m1 0v1h1v-1m1 0v1h1v-1m1 0v1h1v-1m1 0v1h1v-1m1 0v1h1v-1m1 0v1h1v-1m1 0v1h7v-1M13 11v1h5v-1m1 0v1h1v-1m1 0v1h4v-1m6 0v1h2v-1m3 0v1h1v-1m5 0v1h3v-1m1 0v1h2v-1m1 0v1h1v-1m1 0v1h1v-1m1 0v1h4v-1M6 12v1h1v-1m1 0v1h3v-1m1 0v1h1v-1m1 0v1h2v-1m2 0v1h2v-1m2 0v1h1v-1m1 0v1h1v-1m2 0v1h4v-1m1 0v1h6v-1m2 0v1h1v-1m2 0v1h1v-1m4 0v1h3v-1m1 0v1h1v-1m3 0v1h2v-1m3 0v1h1v-1m2 0v1h1v-1M4 13v1h1v-1m1 0v1h3v-1m4 0v1h2v-1m2 0v1h2v-1m1 0v1h2v-1m1 0v1h1v-1m2 0v1h2v-1m1 0v1h2v-1m1 0v1h1v-1m1 0v1h1v-1m1 0v1h2v-1m2 0v1h2v-1m1 0v1h1v-1m2 0v1h3v-1m2 0v1h3v-1m1 0v1h1v-1m1 0v1h1v-1m1 0v1h4v-1m1 0v1h1v-1M5 14v1h1v-1m1 0v1h6v-1m3 0v1h1v-1m1 0v1h1v-1m1 0v1h3v-1m2 0v1h1v-1m1 0v1h3v-1m4 0v1h2v-1m1 0v1h4v-1m2 0v1h1v-1m2 0v1h1v-1m2 0v1h1v-1m4 0v1h1v-1m3 0v1h1v-1m2 0v1h4v-1M4 15v1h2v-1m2 0v1h2v-1m4 0v1h1v-1m2 0v1h1v-1m1 0v1h2v-1m2 0v1h2v-1m6 0v1h6v-1m2 0v1h2v-1m1 0v1h6v-1m1 0v1h3v-1m1 0v1h8v-1m3 0v1h1v-1M6 16v1h1v-1m3 0v1h3v-1m2 0v1h2v-1m1 0v1h1v-1m3 0v1h1v-1m1 0v1h2v-1m1 0v1h5v-1m2 0v1h1v-1m2 0v1h1v-1m1 0v1h5v-1m1 0v1h1v-1m2 0v1h1v-1m3 0v1h1v-1m2 0v1h1v-1m3 0v1h2v-1m3 0v1h1v-1M5 17v1h1v-1m1 0v1h2v-1m4 0v1h3v-1m1 0v1h2v-1m4 0v1h1v-1m2 0v1h2v-1m1 0v1h2v-1m1 0v1h1v-1m3 0v1h2v-1m1 0v1h1v-1m1 0v1h1v-1m1 0v1h1v-1m3 0v1h3v-1m1 0v1h3v-1m3 0v1h1v-1m2 0v1h3v-1m1 0v1h1v-1M6 18v1h6v-1m4 0v1h1v-1m1 0v1h1v-1m6 0v1h1v-1m1 0v1h3v-1m2 0v1h4v-1m1 0v1h7v-1m6 0v1h1v-1m3 0v1h3v-1m1 0v1h2v-1m3 0v1h2v-1M8 19v1h2v-1m1 0v1h2v-1m1 0v1h4v-1m3 0v1h1v-1m1 0v1h3v-1m15 0v1h1v-1m1 0v1h3v-1m1 0v1h1v-1m1 0v1h3v-1m1 0v1h9v-1m1 0v1h1v-1M4 20v1h1v-1m1 0v1h2v-1m2 0v1h1v-1m4 0v1h2v-1m1 0v1h1v-1m4 0v1h1v-1m2 0v1h1v-1m3 0v1h6v-1m5 0v1h3v-1m4 0v1h1v-1m3 0v1h1v-1m6 0v1h2v-1m1 0v1h1v-1m1 0v1h1v-1M4 21v1h1v-1m1 0v1h3v-1m2 0v1h5v-1m1 0v1h2v-1m1 0v1h2v-1m2 0v1h1v-1m3 0v1h2v-1m6 0v1h4v-1m5 0v1h1v-1m1 0v1h3v-1m1 0v1h3v-1m3 0v1h1v-1m2 0v1h4v-1M4 22v1h1v-1m3 0v1h3v-1m5 0v1h1v-1m1 0v1h3v-1m1 0v1h1v-1m1 0v1h1v-1m2 0v1h1v-1m12 0v1h3v-1m7 0v1h1v-1m3 0v1h1v-1m3 0v1h3v-1m2 0v1h1v-1M4 23v1h1v-1m1 0v1h1v-1m1 0v1h2v-1m1 0v1h2v-1m1 0v1h4v-1m1 0v1h1v-1m3 0v1h1v-1m2 0v1h1v-1m16 0v1h1v-1m2 0v1h2v-1m1 0v1h3v-1m1 0v1h2v-1m1 0v1h3v-1m1 0v1h2v-1m1 0v1h2v-1M10 24v1h1v-1m1 0v1h1v-1m2 0v1h2v-1m1 0v1h6v-1m1 0v1h1v-1m18 0v1h1v-1m3 0v1h1v-1m3 0v1h1v-1m2 0v1h1v-1m3 0v1h2v-1m1 0v1h2v-1M4 25v1h1v-1m1 0v1h1v-1m1 0v1h1v-1m4 0v1h3v-1m1 0v1h2v-1m1 0v1h1v-1m1 0v1h1v-1m2 0v1h1v-1m19 0v1h1v-1m2 0v1h2v-1m1 0v1h3v-1m3 0v1h1v-1m1 0v1h1v-1m1 0v1h3v-1M4 26v1h1v-1m1 0v1h1v-1m1 0v1h4v-1m4 0v1h2v-1m1 0v1h2v-1m3 0v1h1v-1m21 0v1h1v-1m3 0v1h1v-1m3 0v1h1v-1m1 0v1h1v-1m1 0v1h1v-1m5 0v1h1v-1M4 27v1h1v-1m1 0v1h4v-1m4 0v1h5v-1m4 0v1h14v-1m9 0v1h1v-1m2 0v1h3v-1m1 0v1h2v-1m2 0v1h3v-1m1 0v1h1v-1m1 0v1h2v-1M10 28v1h1v-1m4 0v1h2v-1m1 0v1h1v-1m3 0v1h2v-1m13 0v1h4v-1m5 0v1h1v-1m1 0v1h1v-1m3 0v1h1v-1m3 0v1h1v-1m2 0v1h1v-1m2 0v1h1v-1M4 29v1h1v-1m1 0v1h1v-1m1 0v1h1v-1m3 0v1h4v-1m2 0v1h1v-1m1 0v1h1v-1m1 0v1h1v-1m18 0v1h3v-1m2 0v1h1v-1m1 0v1h2v-1m1 0v1h3v-1m2 0v1h2v-1m1 0v1h5v-1M4 30v1h1v-1m1 0v1h1v-1m1 0v1h5v-1m3 0v1h2v-1m1 0v1h1v-1m2 0v1h1v-1m21 0v1h1v-1m1 0v1h1v-1m3 0v1h1v-1m3 0v1h1v-1m3 0v1h2v-1m4 0v1h1v-1M4 31v1h1v-1m1 0v1h4v-1m4 0v1h3v-1m1 0v1h1v-1m3 0v1h1v-1m2 0v1h10v-1m10 0v1h2v-1m1 0v1h4v-1m1 0v1h1v-1m2 0v1h4v-1m1 0v1h1v-1m1 0v1h2v-1M8 32v1h5v-1m2 0v1h4v-1m3 0v1h1v-1m1 0v1h1v-1m10 0v1h4v-1m7 0v1h1v-1m1 0v1h1v-1m3 0v1h3v-1m1 0v1h5v-1m1 0v1h1v-1M4 33v1h1v-1m1 0v1h1v-1m1 0v1h1v-1m3 0v1h4v-1m6 0v1h2v-1m14 0v1h4v-1m4 0v1h1v-1m2 0v1h1v-1m1 0v1h3v-1m1 0v1h2v-1m3 0v1h4v-1M4 34v1h1v-1m1 0v1h1v-1m1 0v1h1v-1m1 0v1h1v-1m1 0v1h1v-1m3 0v1h2v-1m3 0v1h1v-1m1 0v1h1v-1m14 0v1h7v-1m1 0v1h1v-1m1 0v1h1v-1m1 0v1h1v-1m2 0v1h2v-1m1 0v1h1v-1m1 0v1h1v-1m1 0v1h1v-1m3 0v1h1v-1M4 35v1h1v-1m1 0v1h3v-1m3 0v1h1v-1m1 0v1h4v-1m2 0v1h1v-1m2 0v1h1v-1m15 0v1h8v-1m1 0v1h4v-1m1 0v1h1v-1m1 0v1h2v-1m3 0v1h2v-1m1 0v1h2v-1M8 36v1h5v-1m2 0v1h4v-1m1 0v1h1v-1m2 0v1h1v-1m3 0v1h2v-1m11 0v1h5v-1m1 0v1h1v-1m1 0v1h1v-1m3 0v1h1v-1m1 0v1h1v-1m1 0v1h5v-1m1 0v1h1v-1M4 37v1h1v-1m1 0v1h1v-1m1 0v1h2v-1m3 0v1h3v-1m4 0v1h1v-1m2 0v1h1v-1m5 0v1h1v-1m6 0v1h2v-1m2 0v1h1v-1m1 0v1h2v-1m2 0v1h1v-1m1 0v1h2v-1m1 0v1h2v-1m4 0v1h3v-1m1 0v1h3v-1M4 38v1h1v-1m1 0v1h1v-1m2 0v1h2v-1m1 0v1h1v-1m3 0v1h1v-1m4 0v1h1v-1m1 0v1h1v-1m3 0v1h2v-1m7 0v1h2v-1m5 0v1h1v-1m1 0v1h1v-1m4 0v1h1v-1m2 0v1h1v-1m1 0v1h2v-1m1 0v1h1v-1m5 0v1h1v-1M4 39v1h1v-1m1 0v1h2v-1m3 0v1h1v-1m1 0v1h5v-1m4 0v1h2v-1m19 0v1h2v-1m4 0v1h2v-1m1 0v1h1v-1m2 0v1h1v-1m1 0v1h1v-1m1 0v1h3v-1m1 0v1h2v-1M8 40v1h4v-1m3 0v1h1v-1m7 0v1h1v-1m19 0v1h1v-1m4 0v1h1v-1m2 0v1h3v-1m2 0v1h1v-1m3 0v1h1v-1m1 0v1h1v-1M4 41v1h1v-1m1 0v1h1v-1m1 0v1h1v-1m2 0v1h1v-1m3 0v1h1v-1m1 0v1h1v-1m2 0v1h1v-1m2 0v1h1v-1m6 0v1h1v-1m3 0v1h1v-1m7 0v1h1v-1m2 0v1h1v-1m3 0v1h1v-1m2 0v1h1v-1m4 0v1h3v-1m1 0v1h3v-1M4 42v1h1v-1m1 0v1h1v-1m3 0v1h6v-1m1 0v1h3v-1m3 0v1h1v-1m7 0v1h3v-1m8 0v1h1v-1m3 0v1h1v-1m1 0v1h1v-1m1 0v1h1v-1m1 0v1h1v-1m2 0v1h2v-1m1 0v1h1v-1m5 0v1h1v-1M4 43v1h1v-1m1 0v1h2v-1m1 0v1h1v-1m1 0v1h1v-1m2 0v1h1v-1m3 0v1h1v-1m5 0v1h1v-1m16 0v1h1v-1m3 0v1h3v-1m2 0v1h1v-1m1 0v1h2v-1m1 0v1h1v-1m1 0v1h1v-1m1 0v1h3v-1m1 0v1h2v-1M10 44v1h2v-1m1 0v1h4v-1m5 0v1h1v-1m2 0v1h1v-1m15 0v1h1v-1m2 0v1h1v-1m2 0v1h1v-1m3 0v1h3v-1m2 0v1h1v-1m1 0v1h1v-1m1 0v1h1v-1m1 0v1h1v-1M4 45v1h1v-1m1 0v1h1v-1m1 0v1h2v-1m1 0v1h1v-1m2 0v1h1v-1m1 0v1h1v-1m3 0v1h1v-1m1 0v1h2v-1m2 0v1h2v-1m11 0v1h2v-1m4 0v1h1v-1m1 0v1h2v-1m1 0v1h1v-1m8 0v1h1v-1m1 0v1h1v-1m1 0v1h1v-1M4 46v1h3v-1m2 0v1h5v-1m3 0v1h1v-1m1 0v1h1v-1m3 0v1h2v-1m3 0v1h3v-1m5 0v1h3v-1m5 0v1h1v-1m1 0v1h2v-1m2 0v1h1v-1m2 0v1h1v-1m1 0v1h2v-1m1 0v1h1v-1m2 0v1h2v-1m1 0v1h1v-1M6 47v1h4v-1m1 0v1h1v-1m1 0v1h2v-1m9 0v1h1v-1m1 0v1h1v-1m4 0v1h5v-1m5 0v1h3v-1m1 0v1h3v-1m2 0v1h1v-1m1 0v1h4v-1m3 0v1h3v-1m1 0v1h2v-1M4 48v1h2v-1m1 0v1h1v-1m1 0v1h3v-1m1 0v1h2v-1m2 0v1h2v-1m3 0v1h1v-1m3 0v1h2v-1m11 0v1h1v-1m4 0v1h1v-1m3 0v1h2v-1m2 0v1h1v-1m3 0v1h3v-1m1 0v1h3v-1M5 49v1h3v-1m3 0v1h1v-1m1 0v1h1v-1m1 0v1h1v-1m4 0v1h1v-1m1 0v1h3v-1m1 0v1h3v-1m2 0v1h1v-1m6 0v1h1v-1m3 0v1h4v-1m1 0v1h3v-1m2 0v1h2v-1m3 0v1h1v-1m1 0v1h1v-1m1 0v1h3v-1M4 50v1h1v-1m1 0v1h1v-1m3 0v1h8v-1m1 0v1h1v-1m3 0v1h4v-1m2 0v1h3v-1m3 0v1h1v-1m4 0v1h1v-1m5 0v1h1v-1m5 0v1h1v-1m1 0v1h5v-1m3 0v1h1v-1m1 0v1h1v-1M7 51v1h2v-1m2 0v1h1v-1m2 0v1h1v-1m1 0v1h1v-1m7 0v1h2v-1m2 0v1h3v-1m2 0v1h1v-1m2 0v1h2v-1m1 0v1h1v-1m1 0v1h1v-1m1 0v1h1v-1m2 0v1h2v-1m1 0v1h3v-1m1 0v1h3v-1m2 0v1h3v-1m2 0v1h2v-1M4 52v1h1v-1m1 0v1h1v-1m3 0v1h2v-1m4 0v1h5v-1m1 0v1h1v-1m2 0v1h2v-1m3 0v1h2v-1m7 0v1h1v-1m1 0v1h1v-1m2 0v1h1v-1m3 0v1h1v-1m1 0v1h2v-1m4 0v1h3v-1m1 0v1h1v-1M5 53v1h1v-1m2 0v1h2v-1m1 0v1h1v-1m2 0v1h1v-1m4 0v1h1v-1m2 0v1h3v-1m4 0v1h2v-1m7 0v1h1v-1m2 0v1h4v-1m1 0v1h3v-1m2 0v1h3v-1m5 0v1h1v-1m1 0v1h1v-1m1 0v1h2v-1M6 54v1h9v-1m2 0v1h1v-1m1 0v1h1v-1m3 0v1h2v-1m2 0v1h2v-1m1 0v1h2v-1m1 0v1h1v-1m1 0v1h1v-1m4 0v1h1v-1m5 0v1h1v-1m2 0v1h1v-1m1 0v1h1v-1m2 0v1h3v-1m1 0v1h1v-1m2 0v1h1v-1m1 0v1h2v-1M4 55v1h3v-1m1 0v1h1v-1m2 0v1h1v-1m1 0v1h3v-1m3 0v1h1v-1m4 0v1h2v-1m1 0v1h1v-1m4 0v1h1v-1m1 0v1h4v-1m1 0v1h1v-1m1 0v1h1v-1m1 0v1h1v-1m1 0v1h1v-1m1 0v1h1v-1m1 0v1h1v-1m1 0v1h1v-1m1 0v1h3v-1m1 0v1h4v-1m2 0v1h2v-1M4 56v1h4v-1m2 0v1h2v-1m1 0v1h2v-1m2 0v1h4v-1m1 0v1h1v-1m3 0v1h1v-1m2 0v1h8v-1m2 0v1h1v-1m1 0v1h1v-1m2 0v1h3v-1m1 0v1h1v-1m3 0v1h1v-1m3 0v1h5v-1m2 0v1h1v-1M12 57v1h1v-1m1 0v1h3v-1m2 0v1h1v-1m2 0v1h3v-1m4 0v1h4v-1m3 0v1h1v-1m1 0v1h1v-1m4 0v1h3v-1m1 0v1h3v-1m1 0v1h3v-1m1 0v1h2v-1m3 0v1h1v-1m1 0v1h1v-1m1 0v1h1v-1M4 58v1h7v-1m3 0v1h1v-1m2 0v1h1v-1m2 0v1h5v-1m2 0v1h2v-1m1 0v1h3v-1m1 0v1h1v-1m1 0v1h1v-1m3 0v1h1v-1m1 0v1h1v-1m2 0v1h2v-1m7 0v1h3v-1m1 0v1h1v-1m1 0v1h2v-1m1 0v1h2v-1M4 59v1h1v-1m5 0v1h1v-1m1 0v1h1v-1m2 0v1h2v-1m5 0v1h1v-1m1 0v1h1v-1m2 0v1h1v-1m3 0v1h2v-1m3 0v1h2v-1m1 0v1h2v-1m2 0v1h1v-1m1 0v1h3v-1m1 0v1h3v-1m1 0v1h4v-1m3 0v1h2v-1M4 60v1h1v-1m1 0v1h3v-1m1 0v1h1v-1m1 0v1h1v-1m1 0v1h6v-1m1 0v1h2v-1m2 0v1h1v-1m3 0v1h2v-1m1 0v1h5v-1m3 0v1h1v-1m3 0v1h1v-1m3 0v1h1v-1m3 0v1h1v-1m2 0v1h6v-1M4 61v1h1v-1m1 0v1h3v-1m1 0v1h1v-1m3 0v1h1v-1m4 0v1h1v-1m1 0v1h4v-1m4 0v1h2v-1m3 0v1h1v-1m3 0v1h2v-1m1 0v1h1v-1m1 0v1h3v-1m1 0v1h3v-1m1 0v1h3v-1m1 0v1h1v-1m1 0v1h3v-1m1 0v1h3v-1M4 62v1h1v-1m1 0v1h3v-1m1 0v1h1v-1m1 0v1h1v-1m1 0v1h4v-1m2 0v1h1v-1m1 0v1h4v-1m1 0v1h2v-1m1 0v1h2v-1m1 0v1h1v-1m2 0v1h1v-1m2 0v1h1v-1m1 0v1h1v-1m4 0v1h1v-1m3 0v1h1v-1m3 0v1h1v-1m1 0v1h2v-1m2 0v1h1v-1m3 0v1h1v-1M4 63v1h1v-1m5 0v1h1v-1m5 0v1h1v-1m3 0v1h1v-1m1 0v1h1v-1m1 0v1h2v-1m1 0v1h1v-1m3 0v1h2v-1m3 0v1h3v-1m1 0v1h1v-1m2 0v1h1v-1m1 0v1h3v-1m1 0v1h3v-1m1 0v1h4v-1m2 0v1h3v-1m1 0v1h1v-1M4 64v1h7v-1m3 0v1h5v-1m1 0v1h1v-1m3 0v1h1v-1m4 0v1h5v-1m3 0v1h2v-1m2 0v1h2v-1m1 0v1h1v-1m3 0v1h1v-1m3 0v1h1v-1m9 0v1h3v-1"/></svg>